<?xml version="1.0" encoding="UTF-8" standalone="no"?>
<!-- Created with Inkscape (http://www.inkscape.org/) -->

<svg
   xmlns:dc="http://purl.org/dc/elements/1.1/"
   xmlns:cc="http://creativecommons.org/ns#"
   xmlns:rdf="http://www.w3.org/1999/02/22-rdf-syntax-ns#"
   xmlns:svg="http://www.w3.org/2000/svg"
   xmlns="http://www.w3.org/2000/svg"
   xmlns:sodipodi="http://sodipodi.sourceforge.net/DTD/sodipodi-0.dtd"
   xmlns:inkscape="http://www.inkscape.org/namespaces/inkscape"
   width="271.72372mm"
   height="110.34467mm"
   viewBox="0 0 962.8006 390.98503"
   id="svg2"
   version="1.1"
   inkscape:version="0.91 r13725"
   sodipodi:docname="mapping.svg">
  <defs
     id="defs4" />
  <sodipodi:namedview
     id="base"
     pagecolor="#ffffff"
     bordercolor="#666666"
     borderopacity="1.0"
     inkscape:pageopacity="0.0"
     inkscape:pageshadow="2"
     inkscape:zoom="5.6"
     inkscape:cx="788.30119"
     inkscape:cy="249.34423"
     inkscape:document-units="px"
     inkscape:current-layer="layer1"
     showgrid="false"
     fit-margin-top="0"
     fit-margin-left="0"
     fit-margin-right="0"
     fit-margin-bottom="0"
     showguides="false"
     inkscape:window-width="1317"
     inkscape:window-height="744"
     inkscape:window-x="49"
     inkscape:window-y="24"
     inkscape:window-maximized="1" />
  <metadata
     id="metadata7">
    <rdf:RDF>
      <cc:Work
         rdf:about="">
        <dc:format>image/svg+xml</dc:format>
        <dc:type
           rdf:resource="http://purl.org/dc/dcmitype/StillImage" />
        <dc:title></dc:title>
      </cc:Work>
    </rdf:RDF>
  </metadata>
  <g
     inkscape:label="Ebene 1"
     inkscape:groupmode="layer"
     id="layer1"
     transform="translate(-9.9767092,21.342609)">
    <path
       style="fill:none;fill-rule:evenodd;stroke:#000000;stroke-width:1;stroke-linecap:butt;stroke-linejoin:miter;stroke-opacity:1"
       d="M 37.19362,30.428556 C 38.245432,114.36715 35,198.26679 35,282.3622"
       id="path4164"
       inkscape:connector-curvature="0"
       sodipodi:nodetypes="cc" />
    <path
       style="fill:none;fill-rule:evenodd;stroke:#000000;stroke-width:1;stroke-linecap:butt;stroke-linejoin:miter;stroke-opacity:1"
       d="m 30.770485,40.163147 c 3.833833,-21.433362 10.41369,-17.75902 13.816533,-3.90319"
       id="path4166"
       inkscape:connector-curvature="0"
       sodipodi:nodetypes="cc" />
    <path
       style="fill:none;fill-rule:evenodd;stroke:#000000;stroke-width:1;stroke-linecap:butt;stroke-linejoin:miter;stroke-opacity:1"
       d="m 10,254.15843 c 97.20196,-0.36127 167.81364,0.34663 252.14286,0.34663"
       id="path4168"
       inkscape:connector-curvature="0"
       sodipodi:nodetypes="cc" />
    <path
       style="fill:none;fill-rule:evenodd;stroke:#000000;stroke-width:1;stroke-linecap:butt;stroke-linejoin:miter;stroke-opacity:1"
       d="m 261.42857,248.07649 c 30.87535,-7.21 15.86169,4.9263 -1.42857,13.57143"
       id="path4170"
       inkscape:connector-curvature="0" />
    <path
       style="fill:none;fill-rule:evenodd;stroke:#000000;stroke-width:1;stroke-linecap:butt;stroke-linejoin:miter;stroke-opacity:1"
       d="M 321.42857,34.076489 C 320.5592,119.68068 320.94293,186.74166 320.71429,264.07649"
       id="path4174"
       inkscape:connector-curvature="0"
       sodipodi:nodetypes="cc" />
    <path
       style="fill:none;fill-rule:evenodd;stroke:#000000;stroke-width:1;stroke-linecap:butt;stroke-linejoin:miter;stroke-opacity:1"
       d="m 312.14286,36.933632 c 8.19338,-17.296982 14.68807,-3.536372 18.57143,7.142857"
       id="path4176"
       inkscape:connector-curvature="0" />
    <path
       style="fill:none;fill-rule:evenodd;stroke:#000000;stroke-width:1;stroke-linecap:butt;stroke-linejoin:miter;stroke-opacity:1"
       d="m 307.22952,253.18889 c 87.32407,-0.96095 173.7102,0.17331 261.34191,0.17331"
       id="path4184"
       inkscape:connector-curvature="0"
       sodipodi:nodetypes="cc" />
    <path
       style="fill:none;fill-rule:evenodd;stroke:#000000;stroke-width:1;stroke-linecap:butt;stroke-linejoin:miter;stroke-opacity:1"
       d="m 558.57143,247.64792 c 19.29955,-1.23725 24.33859,3.21791 9.28571,11.42857"
       id="path4186"
       inkscape:connector-curvature="0" />
    <path
       style="fill:none;fill-rule:evenodd;stroke:#000000;stroke-width:1;stroke-linecap:butt;stroke-linejoin:miter;stroke-opacity:1"
       d="m 280.82241,275.04982 c 47.39093,-27.81897 -35.96103,-4.88539 13.13198,4.04061"
       id="path4192"
       inkscape:connector-curvature="0" />
    <path
       style="fill:none;fill-rule:evenodd;stroke:#000000;stroke-width:1;stroke-linecap:butt;stroke-linejoin:miter;stroke-opacity:1"
       d="m 316.54853,6.8901039 c 10.70733,23.7470611 1.18089,9.1295021 13.92567,0.632986"
       id="path4210"
       inkscape:connector-curvature="0" />
    <path
       style="fill:none;fill-rule:evenodd;stroke:#000000;stroke-width:1;stroke-linecap:butt;stroke-linejoin:miter;stroke-opacity:1"
       d="m 649.57143,15.076489 c -0.29993,87.560731 2.85714,148.677141 3.57143,235.714291"
       id="path4228"
       inkscape:connector-curvature="0"
       sodipodi:nodetypes="cc" />
    <path
       style="fill:none;fill-rule:evenodd;stroke:#000000;stroke-width:1;stroke-linecap:butt;stroke-linejoin:miter;stroke-opacity:1"
       d="m 634.57143,228.64792 c 79.18691,37.87941 77.63743,37.92676 172.56488,86.40499"
       id="path4234"
       inkscape:connector-curvature="0"
       sodipodi:nodetypes="cc" />
    <path
       style="fill:none;fill-rule:evenodd;stroke:#000000;stroke-width:1;stroke-linecap:butt;stroke-linejoin:miter;stroke-opacity:1"
       d="m 637.75144,242.09803 c 103.07445,-28.69506 127.39223,-36.5656 228.29448,-61.6193"
       id="path4240"
       inkscape:connector-curvature="0"
       sodipodi:nodetypes="cc" />
    <path
       style="fill:none;fill-rule:evenodd;stroke:#000000;stroke-width:1;stroke-linecap:butt;stroke-linejoin:miter;stroke-opacity:1"
       d="m 853.14286,172.21935 c 30.96119,-6.68631 22.15502,6.05317 12.85714,20"
       id="path4242"
       inkscape:connector-curvature="0" />
    <path
       style="fill:none;fill-rule:evenodd;stroke:#000000;stroke-width:1;stroke-linecap:butt;stroke-linejoin:miter;stroke-opacity:1"
       d="m 785.73879,321.90008 c 45.07857,-1.81064 47.39586,6.98976 17.1726,-23.23351"
       id="path4244"
       inkscape:connector-curvature="0" />
    <path
       style="fill:none;fill-rule:evenodd;stroke:#000000;stroke-width:1;stroke-linecap:butt;stroke-linejoin:miter;stroke-opacity:1"
       d="m 642.80221,22.894929 c 6.57353,-11.492104 10.6066,-31.481945 10.6066,-5.555839"
       id="path4250"
       inkscape:connector-curvature="0" />
    <path
       style="fill:none;fill-rule:evenodd;stroke:#000000;stroke-width:1;stroke-linecap:butt;stroke-linejoin:miter;stroke-opacity:1"
       d="m 830.04552,317.20682 c 7.43336,4.71165 11.80012,22.2801 12.01284,23.02462"
       id="path4252"
       inkscape:connector-curvature="0" />
    <path
       style="fill:none;fill-rule:evenodd;stroke:#000000;stroke-width:1;stroke-linecap:butt;stroke-linejoin:miter;stroke-opacity:1"
       d="m 830.04552,336.22716 c 5.58913,-5.59326 12.87541,-10.58576 18.77007,-14.51553"
       id="path4256"
       inkscape:connector-curvature="0" />
    <path
       style="fill:none;fill-rule:evenodd;stroke:#000000;stroke-width:1;stroke-linecap:butt;stroke-linejoin:miter;stroke-opacity:1"
       d="m 890.64286,165.43363 c -1.38918,2.9573 -4.05756,12.07837 0.35714,14.28572 4.36999,2.18499 8.21429,-11.39394 8.21429,-10.35715 0,5.44184 0.67044,8.43113 2.5,14.28572 6.29037,20.1292 -12.0852,5.53651 2.5,-0.71429"
       id="path4260"
       inkscape:connector-curvature="0" />
    <path
       style="fill:none;fill-rule:evenodd;stroke:#000000;stroke-width:1;stroke-linecap:butt;stroke-linejoin:miter;stroke-opacity:1"
       d="m 643.14286,-8.49494 c 20.24376,-2.534339 -11.34449,9.642857 4.28571,9.642857 0.86668,0 1.66667,0.476191 2.5,0.714286"
       id="path4262"
       inkscape:connector-curvature="0" />
    <path
       style="fill:none;fill-rule:evenodd;stroke:#000000;stroke-width:1;stroke-linecap:butt;stroke-linejoin:miter;stroke-opacity:1"
       d="m 643.5,-4.566368 c 1.66667,0 3.33333,0 5,0"
       id="path4264"
       inkscape:connector-curvature="0" />
    <path
       style="fill:none;fill-rule:evenodd;stroke:#000000;stroke-width:1;stroke-linecap:butt;stroke-linejoin:miter;stroke-opacity:1"
       d="m 307.14286,102.64792 c 10,0 20,0 30,0"
       id="path4266"
       inkscape:connector-curvature="0" />
    <path
       style="fill:none;fill-rule:evenodd;stroke:#000000;stroke-width:1;stroke-linecap:butt;stroke-linejoin:miter;stroke-opacity:1"
       d="m 295.70774,101.37048 c 8.40544,-7.724159 4.85694,-6.472324 6.61938,7.81862"
       id="path4268"
       inkscape:connector-curvature="0"
       sodipodi:nodetypes="cc" />
    <path
       style="fill:none;fill-rule:evenodd;stroke:#000000;stroke-width:1;stroke-linecap:butt;stroke-linejoin:miter;stroke-opacity:1"
       d="m 486.38845,245.08788 c -0.27047,3.75453 0.50508,13.92882 0.50508,14.14214"
       id="path4272"
       inkscape:connector-curvature="0" />
    <path
       style="fill:none;fill-rule:evenodd;stroke:#000000;stroke-width:1;stroke-linecap:butt;stroke-linejoin:miter;stroke-opacity:1"
       d="m 480.32754,274.3823 c 21.51577,-8.86128 2.67028,-7.10625 11.11167,5.55584"
       id="path4274"
       inkscape:connector-curvature="0" />
    <path
       style="fill:none;fill-rule:evenodd;stroke:#000000;stroke-width:1;stroke-linecap:butt;stroke-linejoin:miter;stroke-opacity:1"
       d="m 320.21836,102.65637 166.17009,0 0,150.00765"
       id="path4282"
       inkscape:connector-curvature="0"
       sodipodi:nodetypes="ccc" />
    <path
       style="fill:none;fill-rule:evenodd;stroke:#000000;stroke-width:1;stroke-linecap:butt;stroke-linejoin:miter;stroke-opacity:1"
       d="M 189.02319,78.423118 C 142.01298,44.530001 86.448353,54.684304 46.880333,87.708832 l 0,142.142868"
       id="path4304"
       inkscape:connector-curvature="0"
       sodipodi:nodetypes="ccc" />
    <path
       style="fill:none;fill-rule:evenodd;stroke:#000000;stroke-width:1;stroke-linecap:butt;stroke-linejoin:miter;stroke-opacity:1"
       d="m 46.757783,229.93835 c 36.42875,7.48753 109.795407,16.37644 141.551127,-10.08666"
       id="path4306"
       inkscape:connector-curvature="0"
       sodipodi:nodetypes="cc" />
    <path
       style="fill:none;fill-rule:evenodd;stroke:#000000;stroke-width:1;stroke-linecap:butt;stroke-linejoin:miter;stroke-opacity:1"
       d="m 188.3089,219.8517 0,-142.142867"
       id="path4310"
       inkscape:connector-curvature="0" />
    <path
       style="fill:none;fill-rule:evenodd;stroke:#000000;stroke-width:1;stroke-linecap:butt;stroke-linejoin:miter;stroke-opacity:1"
       d="M 798.14286,96.505061 C 756.33598,90.53265 709.59761,95.109743 686,137.93363 c 31.45092,1.63984 83.03067,18.83172 100,44.28572 11.81391,-27.38712 56.55348,-31.42857 81.42857,-31.42857 -8.02608,-31.51477 -59.52393,-51.232287 -69.28571,-54.285719 z"
       id="path4312"
       inkscape:connector-curvature="0"
       sodipodi:nodetypes="ccccc" />
    <path
       style="fill:none;fill-rule:evenodd;stroke:#000000;stroke-width:1;stroke-linecap:butt;stroke-linejoin:miter;stroke-opacity:1"
       d="m 737.25147,149.164 c 8.39953,-42.66821 83.42747,-39.57512 122.22846,-27.7792"
       id="path4328"
       inkscape:connector-curvature="0"
       sodipodi:nodetypes="cc" />
    <path
       style="fill:none;fill-rule:evenodd;stroke:#000000;stroke-width:1;stroke-linecap:butt;stroke-linejoin:miter;stroke-opacity:1"
       d="M 816.86444,157.69428 C 803.87581,132.82545 756.02163,106.27258 710.9875,89.249326"
       id="path4330"
       inkscape:connector-curvature="0"
       sodipodi:nodetypes="cc" />
    <path
       style="fill:none;fill-rule:evenodd;stroke:#000000;stroke-width:1;stroke-linecap:butt;stroke-linejoin:miter;stroke-opacity:1"
       d="m 703.3352,78.689256 c 7.95902,16.194216 -1.27748,4.738162 9.73215,-2.142857"
       id="path4336"
       inkscape:connector-curvature="0" />
    <path
       style="fill:none;fill-rule:evenodd;stroke:#000000;stroke-width:1;stroke-linecap:butt;stroke-linejoin:miter;stroke-opacity:1"
       d="m 713.72407,94.982585 c -4.74873,-8.007872 -5.09807,-7.526721 5.08929,-4.732144"
       id="path4338"
       inkscape:connector-curvature="0"
       sodipodi:nodetypes="cc" />
    <path
       style="fill:none;fill-rule:evenodd;stroke:#000000;stroke-width:1;stroke-linecap:butt;stroke-linejoin:miter;stroke-opacity:1"
       d="m 856.19693,117.3442 c 6.93549,4.03924 5.14156,5.65444 -1.26269,6.75539"
       id="path4340"
       inkscape:connector-curvature="0"
       sodipodi:nodetypes="cc" />
    <g
       id="g4370"
       style="stroke:#d40000;stroke-width:0.6072024"
       transform="matrix(1.6468973,0,0,1.6468973,-553.172,-56.206369)">
      <g
         id="g4404"
         style="stroke:#d40000">
        <g
           style="stroke-width:0.6072024;stroke:#d40000"
           id="g4378">
          <path
             sodipodi:nodetypes="cc"
             inkscape:connector-curvature="0"
             id="path4358"
             d="m 804.08385,106.07101 c 0.47857,-10.759374 1.42858,-20.298961 1.60715,-30.535717"
             style="fill:none;fill-rule:evenodd;stroke:#d40000;stroke-width:0.6072024;stroke-linecap:butt;stroke-linejoin:miter;stroke-opacity:1" />
          <path
             inkscape:connector-curvature="0"
             id="path4360"
             d="m 803.54814,76.249579 c 1.41049,-4.565954 3.52848,-3.010853 5.53571,0"
             style="fill:none;fill-rule:evenodd;stroke:#d40000;stroke-width:0.6072024;stroke-linecap:butt;stroke-linejoin:miter;stroke-opacity:1" />
          <path
             sodipodi:nodetypes="cc"
             inkscape:connector-curvature="0"
             id="path4362"
             d="m 804.441,105.71386 c 10.55725,-2.76184 23.21293,-6.70879 31.60714,-9.10714"
             style="fill:none;fill-rule:evenodd;stroke:#d40000;stroke-width:0.6072024;stroke-linecap:butt;stroke-linejoin:miter;stroke-opacity:1" />
          <path
             inkscape:connector-curvature="0"
             id="path4364"
             d="m 804.06219,105.89057 c -7.86323,-3.3131 -15.83365,-6.603759 -26.22834,-10.53385"
             style="fill:none;fill-rule:evenodd;stroke:#d40000;stroke-width:0.6072024;stroke-linecap:butt;stroke-linejoin:miter;stroke-opacity:1"
             sodipodi:nodetypes="cc" />
          <path
             inkscape:connector-curvature="0"
             id="path4366"
             d="m 779.61957,99.46386 c -3.10789,-3.89578 -1.93369,-5.52697 3.03571,-4.10714"
             style="fill:none;fill-rule:evenodd;stroke:#d40000;stroke-width:0.6072024;stroke-linecap:butt;stroke-linejoin:miter;stroke-opacity:1" />
          <path
             inkscape:connector-curvature="0"
             id="path4368"
             d="m 832.65528,95.53529 c 5.55897,-0.56785 5.16383,0.0221 2.67857,3.75"
             style="fill:none;fill-rule:evenodd;stroke:#d40000;stroke-width:0.6072024;stroke-linecap:butt;stroke-linejoin:miter;stroke-opacity:1" />
          <path
             style="fill:none;fill-rule:evenodd;stroke:#000000;stroke-width:0.60720241px;stroke-linecap:butt;stroke-linejoin:miter;stroke-opacity:1"
             d="m 396.9048,25.190254 c -6.38798,5.868205 -4.3879,16.360405 2.14678,19.627746"
             id="path4440"
             inkscape:connector-curvature="0" />
          <path
             style="fill:none;fill-rule:evenodd;stroke:#000000;stroke-width:1.21440482;stroke-linecap:butt;stroke-linejoin:miter;stroke-opacity:1"
             d="m 405.49194,30.403874 c -4.98366,12.971661 -0.64902,14.107442 10.42724,14.107442"
             id="path4442"
             inkscape:connector-curvature="0" />
          <path
             style="fill:none;fill-rule:evenodd;stroke:#000000;stroke-width:0.60720241px;stroke-linecap:butt;stroke-linejoin:miter;stroke-opacity:1"
             d="m 419.44604,24.270204 c 9.60398,6.000179 2.0602,15.78688 1.53342,19.474404"
             id="path4446"
             inkscape:connector-curvature="0" />
          <path
             style="fill:none;fill-rule:evenodd;stroke:#000000;stroke-width:0.60720241px;stroke-linecap:butt;stroke-linejoin:miter;stroke-opacity:1"
             d="m 562.27298,27.405789 c -2.82119,6.976169 -1.45928,16.725164 3.03601,22.119516"
             id="path4448"
             inkscape:connector-curvature="0" />
          <path
             style="fill:none;fill-rule:evenodd;stroke:#000000;stroke-width:1.21440481;stroke-linecap:butt;stroke-linejoin:miter;stroke-opacity:1"
             d="m 574.85074,29.140653 c -1.69365,6.553893 -0.61044,12.481287 1.30115,18.216072 7.406,22.217992 12.14405,-19.039875 12.14405,-17.782356 0,5.249037 2.60229,15.518407 2.60229,18.649788"
             id="path4450"
             inkscape:connector-curvature="0" />
          <path
             style="fill:none;fill-rule:evenodd;stroke:#000000;stroke-width:0.60720241px;stroke-linecap:butt;stroke-linejoin:miter;stroke-opacity:1"
             d="m 596.97026,26.972073 c 9.20556,7.048064 2.44125,22.90003 2.16858,23.85438"
             id="path4452"
             inkscape:connector-curvature="0" />
          <path
             style="fill:none;fill-rule:evenodd;stroke:#000000;stroke-width:0.60720241px;stroke-linecap:butt;stroke-linejoin:miter;stroke-opacity:1"
             d="m 775.22753,24.803493 c -5.24892,10.631391 -4.6049,19.612061 4.33717,24.721812"
             id="path4456"
             inkscape:connector-curvature="0" />
          <path
             style="fill:none;fill-rule:evenodd;stroke:#000000;stroke-width:1.21440481;stroke-linecap:butt;stroke-linejoin:miter;stroke-opacity:1"
             d="m 789.10645,27.405789 c 4.86777,5.547801 15.44219,14.655787 12.57776,20.384652"
             id="path4458"
             inkscape:connector-curvature="0" />
          <path
             style="fill:none;fill-rule:evenodd;stroke:#000000;stroke-width:1.21440481;stroke-linecap:butt;stroke-linejoin:miter;stroke-opacity:1"
             d="m 790.84131,47.790441 c 2.68616,-8.284045 12.69784,-18.054006 17.78236,-21.6858"
             id="path4460"
             inkscape:connector-curvature="0" />
          <path
             style="fill:none;fill-rule:evenodd;stroke:#000000;stroke-width:0.60720241px;stroke-linecap:butt;stroke-linejoin:miter;stroke-opacity:1"
             d="m 816.86427,25.670925 c 7.66226,9.157712 2.09201,20.46122 -3.90344,26.456676"
             id="path4462"
             inkscape:connector-curvature="0" />
          <path
             style="fill:none;fill-rule:evenodd;stroke:#d40000;stroke-width:0.60720241px;stroke-linecap:butt;stroke-linejoin:miter;stroke-opacity:1"
             d="m 822.21165,65.979163 c -4.38397,1.73058 -1.7935,6.778106 0.46003,8.280456"
             id="path4464"
             inkscape:connector-curvature="0" />
          <path
             style="fill:none;fill-rule:evenodd;stroke:#d40000;stroke-width:1.21440481;stroke-linecap:butt;stroke-linejoin:miter;stroke-opacity:1"
             d="m 825.32173,69.367811 c -0.31305,-1.313627 1.68821,5.111292 1.08429,3.903445 -0.65616,-1.312327 1.98462,-4.412697 2.81916,-3.578157 2.0671,2.067103 -4.38054,6.180453 0.97586,6.180453"
             id="path4466"
             inkscape:connector-curvature="0" />
          <path
             style="fill:none;fill-rule:evenodd;stroke:#d40000;stroke-width:0.60720241px;stroke-linecap:butt;stroke-linejoin:miter;stroke-opacity:1"
             d="m 831.9359,66.006513 c 3.65446,2.15289 2.2292,6.685881 0.54214,9.216465"
             id="path4468"
             inkscape:connector-curvature="0" />
          <path
             inkscape:connector-curvature="0"
             id="path4470"
             d="m 837.46578,91.270469 c -0.31305,-1.313627 1.68821,5.111292 1.08429,3.903445 -0.65616,-1.312327 1.98462,-4.412697 2.81916,-3.578157 2.0671,2.067103 -4.38054,6.180453 0.97586,6.180453"
             style="fill:none;fill-rule:evenodd;stroke:#d40000;stroke-width:0.60720241px;stroke-linecap:butt;stroke-linejoin:miter;stroke-opacity:1" />
        </g>
        <path
           inkscape:connector-curvature="0"
           id="path4386"
           d="m 808.10171,61.874579 c -1.04429,-0.60725 -2.51196,-0.779641 -3.125,0.446429 -0.6344,1.26881 2.43089,1.964285 1.96429,1.964285 -1.11925,0 -2.63771,1.177373 -1.69643,2.589286 0.0352,0.05283 2.39354,0.901442 1.69643,1.25 -0.21138,0.10569 -1.19842,-0.906743 -1.42857,-0.446429 -0.65447,1.308926 1.20991,5.568511 -2.05358,3.392858"
           style="fill:none;fill-rule:evenodd;stroke:#d40000;stroke-width:0.6072024;stroke-linecap:butt;stroke-linejoin:miter;stroke-opacity:1" />
        <path
           inkscape:connector-curvature="0"
           id="path4392"
           d="m 785.5044,100.03004 c -0.30544,-0.616353 -0.725,-0.631353 -1.38896,-0.631353 -0.98906,0 -2.12039,0.794563 -2.77792,1.452103 -2.88022,2.88022 3.81944,5.65034 1.51523,3.34613 -0.59401,-0.59401 -1.49236,3.89421 -4.73509,2.27284"
           style="fill:none;fill-rule:evenodd;stroke:#d40000;stroke-width:0.60720241;stroke-linecap:butt;stroke-linejoin:miter;stroke-opacity:1" />
      </g>
    </g>
    <path
       style="fill:none;fill-rule:evenodd;stroke:#000000;stroke-width:1;stroke-linecap:butt;stroke-linejoin:miter;stroke-opacity:1"
       d="m 867.5626,117.86635 c -0.12048,1.63249 -3.52629,5.39056 -0.75761,6.31346 2.73008,0.91002 3.88368,-4.95515 4.29315,-4.54569 1.0782,1.0782 1.99693,2.98994 3.40926,4.16688"
       id="path4394"
       inkscape:connector-curvature="0" />
    <path
       style="fill:none;fill-rule:evenodd;stroke:#000000;stroke-width:1;stroke-linecap:butt;stroke-linejoin:miter;stroke-opacity:1"
       d="m 583.54814,246.44601 c 1.30582,1.71169 -1.9488,4.04882 -1.16071,5.625 1.83043,3.66087 5.83696,3.02483 6.96428,-0.35714 0.57432,-1.72295 -0.17857,-4.63108 -0.17857,-4.19643 0,2.24847 1.42018,5.10456 1.875,6.69643"
       id="path4402"
       inkscape:connector-curvature="0" />
    <path
       style="fill:none;fill-rule:evenodd;stroke:#000000;stroke-width:1px;stroke-linecap:butt;stroke-linejoin:miter;stroke-opacity:1"
       d="M 499.26242,88.92815 C 525.56052,41.025657 588.78929,58.057679 620.691,84.64244"
       id="path4472"
       inkscape:connector-curvature="0" />
    <path
       style="fill:none;fill-rule:evenodd;stroke:#000000;stroke-width:1px;stroke-linecap:butt;stroke-linejoin:miter;stroke-opacity:1"
       d="m 607.83385,86.07101 c 19.96765,9.59754 23.17813,4.0529 12.85715,-11.428573"
       id="path4474"
       inkscape:connector-curvature="0" />
    <path
       style="fill:none;fill-rule:evenodd;stroke:#000000;stroke-width:1px;stroke-linecap:butt;stroke-linejoin:miter;stroke-opacity:1"
       d="m 294.26242,86.78529 c -27.27334,-18.728001 -57.65043,-16.328276 -82.14285,0"
       id="path4478"
       inkscape:connector-curvature="0" />
    <path
       style="fill:none;fill-rule:evenodd;stroke:#000000;stroke-width:1px;stroke-linecap:butt;stroke-linejoin:miter;stroke-opacity:1"
       d="m 207.83385,80.35672 c -14.81397,18.22958 -3.40278,16.58447 12.14286,12.14286"
       id="path4480"
       inkscape:connector-curvature="0" />
    <path
       style="fill:none;fill-rule:evenodd;stroke:#000000;stroke-width:1px;stroke-linecap:butt;stroke-linejoin:miter;stroke-opacity:1"
       d="m 305.44633,175.69315 201.52543,0"
       id="path4486"
       inkscape:connector-curvature="0" />
    <path
       style="fill:none;fill-rule:evenodd;stroke:#000000;stroke-width:1px;stroke-linecap:butt;stroke-linejoin:miter;stroke-opacity:1"
       d="m 400.90575,265.59672 0,-187.383293"
       id="path4488"
       inkscape:connector-curvature="0" />
    <path
       style="fill:none;fill-rule:evenodd;stroke:#000000;stroke-width:1px;stroke-linecap:butt;stroke-linejoin:miter;stroke-opacity:1"
       d="m 40.690995,156.07101 c 45.747071,-30.04392 116.013685,-16.3858 160.714285,-10"
       id="path4490"
       inkscape:connector-curvature="0" />
    <path
       style="fill:none;fill-rule:evenodd;stroke:#000000;stroke-width:1px;stroke-linecap:butt;stroke-linejoin:miter;stroke-opacity:1"
       d="M 105.691,247.49958 C 168.13185,190.07143 94.262423,115.10999 94.262423,51.071008"
       id="path4492"
       inkscape:connector-curvature="0" />
    <path
       style="fill:none;fill-rule:evenodd;stroke:#000000;stroke-width:1px;stroke-linecap:butt;stroke-linejoin:miter;stroke-opacity:1"
       d="m 91.226709,54.999579 c 6.148011,-12.899746 2.951807,-4.19105 7.857143,0.714286"
       id="path4496"
       inkscape:connector-curvature="0" />
    <path
       style="fill:none;fill-rule:evenodd;stroke:#000000;stroke-width:1px;stroke-linecap:butt;stroke-linejoin:miter;stroke-opacity:1"
       d="m 198.49643,141.34796 c 12.00756,3.78779 4.50445,7.53363 -1.38896,10.48033"
       id="path4500"
       inkscape:connector-curvature="0" />
    <path
       style="fill:none;fill-rule:evenodd;stroke:#000000;stroke-width:1px;stroke-linecap:butt;stroke-linejoin:miter;stroke-opacity:1"
       d="m 760.33385,121.96386 c 4.88479,5.08555 16.62814,8.55044 21.07143,4.10715"
       id="path4504"
       inkscape:connector-curvature="0" />
    <path
       style="fill:none;fill-rule:evenodd;stroke:#000000;stroke-width:1px;stroke-linecap:butt;stroke-linejoin:miter;stroke-opacity:1"
       d="m 96.849828,138.57004 c 5.879112,10.07902 15.252292,12.87945 26.263972,12.87945"
       id="path4506"
       inkscape:connector-curvature="0" />
    <path
       style="fill:none;fill-rule:evenodd;stroke:#000000;stroke-width:1px;stroke-linecap:butt;stroke-linejoin:miter;stroke-opacity:1"
       d="m 114.51574,139.35025 c -1.04191,1.11614 -1.90786,2.3782 -2.77792,3.63023 -0.58504,0.84189 -1.10086,1.70097 -1.86247,2.39911 -0.53378,0.48931 -1.04195,1.07597 -1.6415,1.48367 -1.19759,0.81436 -1.30087,0.36269 -0.82074,-0.75762 0.55352,-1.29155 0.79624,-2.98132 2.80948,-1.8309 1.9249,1.09994 3.71779,3.87768 5.58741,4.29315"
       id="path4510"
       inkscape:connector-curvature="0" />
    <path
       style="fill:none;fill-rule:evenodd;stroke:#000000;stroke-width:1px;stroke-linecap:butt;stroke-linejoin:miter;stroke-opacity:1"
       d="m 772.89442,120.7661 c -3.63393,7.2355 -8.94147,2.52608 -3.03046,2.02031 1.94528,-0.16645 1.30378,2.62144 3.283,2.90419"
       id="path4512"
       inkscape:connector-curvature="0"
       sodipodi:nodetypes="csc" />
    <path
       style="fill:none;fill-rule:evenodd;stroke:#000000;stroke-width:1px;stroke-linecap:butt;stroke-linejoin:miter;stroke-opacity:1"
       d="m 20.333852,19.999579 c 1.434004,-3.220412 4.376765,-5.706113 5.892857,-8.75 0.12396,-0.248877 0.05324,8.595008 0,8.75 -0.464207,1.351497 4.68137,-9.922974 5.892857,-7.5 0.779035,1.55807 0.714286,3.338242 0.714286,5.178571 l 0,1.428572 c 0,-10.598689 7.142857,-7.97235 7.142857,0.535714"
       id="path4533"
       inkscape:connector-curvature="0"
       sodipodi:nodetypes="csssscc" />
    <path
       style="fill:none;fill-rule:evenodd;stroke:#000000;stroke-width:1px;stroke-linecap:butt;stroke-linejoin:miter;stroke-opacity:1"
       d="m 92.66676,34.384421 c 3.50486,1.95371 0.85699,12.75056 4.16688,5.3033 0.82995,-1.86739 3.20555,-4.97331 3.91434,-5.68211"
       id="path4502"
       inkscape:connector-curvature="0" />
    <path
       style="fill:none;fill-rule:evenodd;stroke:#000000;stroke-width:1px;stroke-linecap:butt;stroke-linejoin:miter;stroke-opacity:1"
       d="m 211.26746,143.26976 c -2.60868,1.14289 0.12034,10.77251 3.03571,7.85714 1.24307,-1.24307 2.06017,-3.48874 3.21428,-4.64286 0.4209,-0.42089 0,-2.38095 0,-1.78571 0,2.70457 1.98019,5.74609 3.03572,7.85714"
       id="path4498"
       inkscape:connector-curvature="0" />
  </g>
</svg>
